<svg width="94" height="94" viewBox="0 0 94 94" fill="none" xmlns="http://www.w3.org/2000/svg">
<rect width="94" height="94" rx="16" fill="#FEFEFE"/>
<path d="M35.6861 39.0009H21.3145C20.0363 39.0009 19 40.0187 19 41.2742V63.7249C19 64.9804 20.0369 66 21.3145 66H35.6855C36.9637 66 37.9994 64.9799 37.9994 63.7249L38 41.2727C38 40.0167 36.9636 39 35.6861 39L35.6861 39.0009ZM28.5001 64.8608C27.8613 64.8608 27.3425 64.3513 27.3425 63.7241C27.3425 63.0964 27.8613 62.5863 28.5001 62.5863C29.1389 62.5863 29.6571 63.0958 29.6571 63.7241C29.6576 64.3519 29.1395 64.8608 28.5001 64.8608ZM21.3146 61.4513V41.2903H35.6851L35.6856 61.4513H21.3146Z" fill="#064EA2"/>
<path d="M49.8358 39H43.1637C41.9704 39 41 40.021 41 41.2745V55.725C41 56.9801 41.9704 58 43.1637 58H49.8358C51.0291 58 51.9995 56.979 51.9995 55.725L52 41.275C52 40.0205 51.0291 39 49.8358 39ZM46.7478 56.8741C46.1506 56.8741 45.6662 56.3667 45.6662 55.7408C45.6662 55.1155 46.1506 54.607 46.7478 54.607C47.3455 54.607 47.8294 55.115 47.8294 55.7408C47.8294 56.3673 47.3455 56.8741 46.7478 56.8741ZM43.1637 53.4749V41.2846L49.8358 41.275L49.8379 53.4748L43.1636 53.4742L43.1637 53.4749Z" fill="#064EA2"/>
<path d="M65.0003 59C59.4862 59 55 54.5139 55 49C55 43.4861 59.4862 39 65.0003 39C70.5138 39 75 43.4861 75 49C75 54.5139 70.5144 59 65.0003 59ZM65.0003 41.37C60.7833 41.37 57.353 44.7931 57.353 49.0005C57.353 53.2078 60.7833 56.6309 65.0003 56.6309C69.2173 56.6309 72.647 53.2078 72.647 49.0005C72.647 44.7931 69.2167 41.37 65.0003 41.37Z" fill="#064EA2"/>
<path d="M66.9999 47.4419C66.9999 46.0929 65.8818 45 64.4999 45C63.1191 45 62 46.0928 62 47.4419C62 48.4002 62.5661 49.2279 63.3893 49.6281V52.9144C63.3893 53.5139 63.8872 54 64.5 54C65.1133 54 65.6119 53.5139 65.6119 52.9144L65.6124 49.6275C66.4345 49.2279 66.9999 48.3996 66.9999 47.4419Z" fill="#064EA2"/>
<mask id="mask0_50_39" style="mask-type:luminance" maskUnits="userSpaceOnUse" x="9" y="21" width="75" height="45">
<path d="M9 21H84V65.3319H9V21Z" fill="white"/>
</mask>
<g mask="url(#mask0_50_39)">
<path d="M52.7247 65.1786V65.2321H79.3046C81.893 65.2321 83.9909 63.1708 83.9909 60.6307V25.7205C83.9909 23.1799 81.8928 21.1197 79.3046 21.1197L13.6981 21.1191C11.1091 21.1191 9.01178 23.1799 9.01178 25.7199V60.6302C9.01178 63.1708 11.1093 65.2316 13.6981 65.2316H16.3392V62.9136L13.6981 62.9142C12.4054 62.9142 11.3552 61.8901 11.3552 60.6307V25.7205C11.3552 24.4617 12.406 23.4376 13.6981 23.4376H79.3046C80.5973 23.4376 81.6475 24.4617 81.6475 25.7205V60.6307C81.6475 61.8901 80.5967 62.9142 79.3046 62.9142H40.4477V62.9257H40.2768V65.1793" fill="#064EA2"/>
</g>
<path d="M59.8477 69.7337H52.628V63H40.3733V69.7342L33.153 69.7337C32.5164 69.7337 32 70.2409 32 70.8663C32 71.4922 32.5164 72 33.153 72H59.847C60.4836 72 61 71.4928 61 70.8674C61 70.2415 60.4836 69.7337 59.847 69.7337L59.8477 69.7337ZM42.68 65.2657H50.3211V69.7201H42.68V65.2657Z" fill="#064EA2"/>
</svg>
