<svg width="69" height="55" viewBox="0 0 69 55" fill="none" xmlns="http://www.w3.org/2000/svg">
<path d="M30.3673 14.6677L29.5817 14.3241C25.4735 12.5394 21.5966 10.8524 19.1289 7.15301C18.7493 6.586 17.9833 6.43462 17.4236 6.81183C16.859 7.18903 16.7052 7.95318 17.0824 8.51776C19.951 12.8178 24.3468 14.7306 28.5992 16.5799L29.3822 16.9211C36.3921 19.9888 40.5388 24.138 42.4291 29.9802C43.7456 34.0475 45.0811 38.1094 46.4196 42.1696L48.1566 47.4571C48.3251 47.9734 48.8078 48.3024 49.3242 48.3024C49.4518 48.3024 49.5812 48.2835 49.7087 48.2426C50.3526 48.029 50.7054 47.3344 50.4942 46.688L48.7547 41.4005C47.4217 37.3429 46.0857 33.2852 44.7691 29.2204C42.6482 22.6627 38.0718 18.0382 30.3673 14.6677Z" fill="#F67150"/>
<path d="M7.52036 47.3629C7.23898 47.9806 7.51059 48.7106 8.12826 48.9943C9.84826 49.7799 11.6787 50.1717 13.7111 50.1717C15.2339 50.1717 16.8726 49.9508 18.6623 49.5113C23.9309 48.2259 28.1564 44.6804 31.224 38.9724C31.7117 38.0666 32.1036 37.2018 32.471 36.3901C33.7033 33.6611 34.4479 32.0132 37.6382 31.1599C38.2943 30.9823 38.6831 30.3072 38.5079 29.6511C38.3303 28.9974 37.6644 28.6184 36.9991 28.7814C32.687 29.9392 31.4932 32.5796 30.2292 35.3756C29.8831 36.1397 29.5156 36.954 29.0567 37.8067C26.2942 42.9453 22.7023 45.9915 18.0776 47.1231C14.4742 48.0069 11.6323 47.8897 9.15058 46.7556C8.53412 46.4816 7.80423 46.7483 7.52036 47.3629Z" fill="#F67150"/>
<path d="M58.4062 6.89453H58.394C57.7166 6.90186 57.1715 7.45667 57.1758 8.13659C57.2356 14.8438 54.0623 19.7785 47.1892 23.6652C46.5984 24.0015 46.389 24.751 46.7229 25.3417C46.9512 25.7427 47.3668 25.9661 47.7941 25.9661C48.0004 25.9661 48.2073 25.9155 48.3995 25.8075C56.027 21.4904 59.7027 15.7031 59.6355 8.11214C59.6294 7.43831 59.0813 6.89509 58.4062 6.89509L58.4062 6.89453Z" fill="#F67150"/>
<path d="M2.15315 51.1834C2.44368 51.9543 2.73237 52.7282 3.0107 53.504C3.19074 54.0063 3.66438 54.3182 4.16854 54.3182C4.30526 54.3182 4.44748 54.2944 4.5842 54.2462C5.22323 54.0179 5.55465 53.3142 5.32638 52.6728C5.04501 51.8872 4.7496 51.1017 4.4542 50.3187C3.76938 48.4956 3.05832 46.6096 2.54935 44.7334C2.42179 44.2579 2.43155 43.8349 2.57316 43.6549C2.70499 43.4913 3.06327 43.3955 3.55338 43.4193C5.03348 43.4651 6.52025 43.4553 8.00463 43.4455L9.89556 43.4358C10.5755 43.4358 11.1254 42.8859 11.1254 42.2059C11.1254 41.526 10.5755 40.9761 9.89556 40.9761L7.98822 40.9858C6.53986 40.998 5.08603 41.0096 3.63525 40.9596C1.92009 40.9162 1.09134 41.5651 0.644468 42.1272C-0.00189126 42.9438 -0.169735 44.0992 0.175718 45.3773C0.717093 47.3664 1.44708 49.3073 2.15322 51.1836L2.15315 51.1834Z" fill="#F67150"/>
<path d="M22.7422 2.31469C19.2205 0.570316 15.5858 -0.98859 13.2122 0.777223C11.4006 2.12488 10.9325 4.97894 11.737 9.76472C11.8383 10.3653 12.3596 10.7901 12.9479 10.7901C13.0175 10.7901 13.0846 10.7852 13.1542 10.773C13.8244 10.6601 14.2761 10.026 14.1631 9.35579C13.3538 4.54688 14.1393 3.15345 14.6801 2.75173C16.0448 1.7477 19.9724 3.68862 21.6515 4.51985C22.257 4.8177 22.9992 4.57539 23.2995 3.9626C23.5998 3.3547 23.3526 2.61744 22.7422 2.31469Z" fill="#F67150"/>
<path d="M57.0985 0.433631C55.4767 0.935943 53.3772 2.43004 52.5842 6.68675C52.4591 7.35447 52.8992 7.9984 53.5669 8.12109C53.6438 8.13573 53.7183 8.14245 53.7952 8.14245C54.3744 8.14245 54.8908 7.72924 55.0012 7.13841C55.3162 5.45451 56.0608 3.33045 57.8266 2.78295C59.9311 2.13659 63.1359 3.67406 66.3838 6.92232C66.8641 7.40266 67.6423 7.40266 68.1233 6.92232C68.6036 6.44198 68.6036 5.66377 68.1233 5.18279C64.1639 1.22154 60.1521 -0.508088 57.0985 0.433631Z" fill="#F67150"/>
<path d="M44.3578 52.0039C47.8795 53.7482 51.5142 55.3071 53.8878 53.5413C55.6994 52.1937 56.1675 49.3396 55.363 44.5538C55.2623 43.9532 54.7411 43.5278 54.1521 43.5278C54.0825 43.5278 54.0154 43.5327 53.9458 43.5449C53.2756 43.6578 52.824 44.292 52.9369 44.9622C53.7462 49.7717 52.9607 51.1651 52.4205 51.5662C51.0558 52.5703 47.1282 50.6293 45.4491 49.7981C44.8437 49.5003 44.1015 49.7425 43.8012 50.3553C43.5003 50.9632 43.7475 51.7011 44.3578 52.0039Z" fill="#F67150"/>
</svg>
