<svg width="75" height="51" viewBox="0 0 75 51" fill="none" xmlns="http://www.w3.org/2000/svg">
<path d="M26.6861 18.0009H12.3145C11.0363 18.0009 10 19.0187 10 20.2742V42.7249C10 43.9804 11.0369 45 12.3145 45H26.6855C27.9637 45 28.9994 43.9799 28.9994 42.7249L29 20.2727C29 19.0167 27.9636 18 26.6861 18L26.6861 18.0009ZM19.5001 43.8608C18.8613 43.8608 18.3425 43.3513 18.3425 42.7241C18.3425 42.0964 18.8613 41.5863 19.5001 41.5863C20.1389 41.5863 20.6571 42.0958 20.6571 42.7241C20.6576 43.3519 20.1395 43.8608 19.5001 43.8608ZM12.3146 40.4513V20.2903H26.6851L26.6856 40.4513H12.3146Z" fill="#064EA2"/>
<path d="M40.8358 18H34.1637C32.9704 18 32 19.021 32 20.2745V34.725C32 35.9801 32.9704 37 34.1637 37H40.8358C42.0291 37 42.9995 35.979 42.9995 34.725L43 20.275C43 19.0205 42.0291 18 40.8358 18ZM37.7478 35.8741C37.1506 35.8741 36.6662 35.3667 36.6662 34.7408C36.6662 34.1155 37.1506 33.607 37.7478 33.607C38.3455 33.607 38.8294 34.115 38.8294 34.7408C38.8294 35.3673 38.3455 35.8741 37.7478 35.8741ZM34.1637 32.4749V20.2846L40.8358 20.275L40.8379 32.4748L34.1636 32.4742L34.1637 32.4749Z" fill="#064EA2"/>
<path d="M56.0003 38C50.4862 38 46 33.5139 46 28C46 22.4861 50.4862 18 56.0003 18C61.5138 18 66 22.4861 66 28C66 33.5139 61.5144 38 56.0003 38ZM56.0003 20.37C51.7833 20.37 48.353 23.7931 48.353 28.0005C48.353 32.2078 51.7833 35.6309 56.0003 35.6309C60.2173 35.6309 63.647 32.2078 63.647 28.0005C63.647 23.7931 60.2167 20.37 56.0003 20.37Z" fill="#064EA2"/>
<path d="M57.9999 26.4419C57.9999 25.0929 56.8818 24 55.4999 24C54.1191 24 53 25.0928 53 26.4419C53 27.4002 53.5661 28.2279 54.3893 28.6281V31.9144C54.3893 32.5139 54.8872 33 55.5 33C56.1133 33 56.6119 32.5139 56.6119 31.9144L56.6124 28.6275C57.4345 28.2279 57.9999 27.3996 57.9999 26.4419Z" fill="#064EA2"/>
<path d="M43.7247 44.1786V44.2321H70.3046C72.893 44.2321 74.9909 42.1708 74.9909 39.6307V4.72051C74.9909 2.17989 72.8928 0.119716 70.3046 0.119716L4.69807 0.119141C2.10915 0.119141 0.0117798 2.17991 0.0117798 4.71993V39.6302C0.0117798 42.1708 2.1093 44.2316 4.69807 44.2316H7.33924V41.9136L4.69807 41.9142C3.40538 41.9142 2.35522 40.8901 2.35522 39.6307V4.72051C2.35522 3.4617 3.406 2.43764 4.69807 2.43764H70.3046C71.5973 2.43764 72.6475 3.4617 72.6475 4.72051V39.6307C72.6475 40.8901 71.5967 41.9142 70.3046 41.9142H31.4477V41.9257H31.2768V44.1793" fill="#064EA2"/>
<path d="M50.8477 48.7337H43.628V42H31.3733V48.7342L24.153 48.7337C23.5164 48.7337 23 49.2409 23 49.8663C23 50.4922 23.5164 51 24.153 51H50.847C51.4836 51 52 50.4928 52 49.8674C52 49.2415 51.4836 48.7337 50.847 48.7337L50.8477 48.7337ZM33.68 44.2657H41.3211V48.7201H33.68V44.2657Z" fill="#064EA2"/>
</svg>
