<svg width="128" height="128" viewBox="0 0 128 128" fill="none" xmlns="http://www.w3.org/2000/svg">
<path d="M106.667 64V117.333H21.3333V64" stroke="#46A26F" stroke-width="3" stroke-linecap="round" stroke-linejoin="round"/>
<path d="M117.333 37.3333H10.6667V63.9999H117.333V37.3333Z" stroke="#46A26F" stroke-width="3" stroke-linecap="round" stroke-linejoin="round"/>
<path d="M64 117.333V37.3333" stroke="#46A26F" stroke-width="3" stroke-linecap="round" stroke-linejoin="round"/>
<path d="M64.0001 37.3334H40.0001C36.4639 37.3334 33.0725 35.9287 30.572 33.4282C28.0715 30.9277 26.6667 27.5363 26.6667 24.0001C26.6667 20.4639 28.0715 17.0725 30.572 14.572C33.0725 12.0715 36.4639 10.6667 40.0001 10.6667C58.6667 10.6667 64.0001 37.3334 64.0001 37.3334Z" stroke="#46A26F" stroke-width="3" stroke-linecap="round" stroke-linejoin="round"/>
<path d="M64 37.3334H88C91.5362 37.3334 94.9276 35.9287 97.4281 33.4282C99.9286 30.9277 101.333 27.5363 101.333 24.0001C101.333 20.4639 99.9286 17.0725 97.4281 14.572C94.9276 12.0715 91.5362 10.6667 88 10.6667C69.3333 10.6667 64 37.3334 64 37.3334Z" stroke="#46A26F" stroke-width="3" stroke-linecap="round" stroke-linejoin="round"/>
</svg>
