<svg width="92" height="92" viewBox="0 0 92 92" fill="none" xmlns="http://www.w3.org/2000/svg">
<path d="M65.1666 80.5V72.8333C65.1666 68.7667 63.5511 64.8666 60.6756 61.991C57.8 59.1155 53.8999 57.5 49.8333 57.5H19.1666C15.0999 57.5 11.1998 59.1155 8.32428 61.991C5.44872 64.8666 3.83325 68.7667 3.83325 72.8333V80.5" stroke="#F67150" stroke-width="3" stroke-linecap="round" stroke-linejoin="round"/>
<path d="M34.5001 42.1667C42.9684 42.1667 49.8334 35.3017 49.8334 26.8333C49.8334 18.365 42.9684 11.5 34.5001 11.5C26.0317 11.5 19.1667 18.365 19.1667 26.8333C19.1667 35.3017 26.0317 42.1667 34.5001 42.1667Z" stroke="#F67150" stroke-width="3" stroke-linecap="round" stroke-linejoin="round"/>
<path d="M88.1667 80.4997V72.833C88.1642 69.4357 87.0334 66.1353 84.952 63.4503C82.8705 60.7652 79.9562 58.8474 76.6667 57.998" stroke="#F67150" stroke-width="3" stroke-linecap="round" stroke-linejoin="round"/>
<path d="M61.3333 11.998C64.6315 12.8425 67.5549 14.7607 69.6425 17.4502C71.7302 20.1397 72.8633 23.4476 72.8633 26.8522C72.8633 30.2569 71.7302 33.5647 69.6425 36.2542C67.5549 38.9437 64.6315 40.8619 61.3333 41.7064" stroke="#F67150" stroke-width="3" stroke-linecap="round" stroke-linejoin="round"/>
</svg>
