<svg width="80" height="80" viewBox="0 0 80 80" fill="none" xmlns="http://www.w3.org/2000/svg">
<path d="M68.7687 26.2501C72.1833 33.3846 72.825 41.5335 70.5693 49.1145C68.3136 56.6956 63.3213 63.1681 56.5618 67.2753C49.8022 71.3826 41.7576 72.8316 33.9898 71.3411C26.2219 69.8505 19.2851 65.5268 14.5259 59.2093C9.76667 52.8917 7.52473 45.0312 8.23528 37.1536C8.94584 29.276 12.5582 21.9435 18.3711 16.5795C24.1839 11.2156 31.7825 8.20296 39.6917 8.12649C47.6009 8.05002 55.2564 10.9152 61.1719 16.1657L68.6719 8.66572C69.0247 8.31901 69.5002 8.12576 69.9948 8.12807C70.4894 8.13037 70.9631 8.32803 71.3127 8.678C71.6622 9.02797 71.8594 9.5019 71.8611 9.99653C71.8628 10.4912 71.669 10.9665 71.3219 11.3188L41.3219 41.3188C41.1482 41.4952 40.9413 41.6354 40.7131 41.7313C40.485 41.8273 40.2401 41.8772 39.9926 41.878C39.7451 41.8789 39.4999 41.8307 39.271 41.7364C39.0422 41.642 38.8344 41.5032 38.6595 41.3281C38.4846 41.153 38.3461 40.945 38.2519 40.716C38.1578 40.4871 38.1099 40.2418 38.1111 39.9943C38.1123 39.7468 38.1624 39.502 38.2586 39.274C38.3549 39.0459 38.4953 38.8392 38.6719 38.6657L47.8562 29.4782C45.4633 27.6889 42.5314 26.7696 39.5452 26.8723C36.559 26.975 33.6972 28.0936 31.4329 30.0431C29.1685 31.9926 27.6371 34.6564 27.0918 37.5942C26.5465 40.532 27.0199 43.5679 28.4338 46.2002C29.8476 48.8325 32.1174 50.9035 34.8678 52.0711C37.6182 53.2386 40.6847 53.4328 43.5604 52.6214C46.4361 51.81 48.9489 50.0417 50.6834 47.6088C52.418 45.1758 53.2705 42.2238 53.1 39.2407C53.0718 38.7434 53.2423 38.2553 53.574 37.8838C53.9057 37.5122 54.3714 37.2877 54.8687 37.2595C55.366 37.2313 55.8541 37.4018 56.2257 37.7335C56.5972 38.0652 56.8218 38.5309 56.85 39.0282C57.075 42.8871 55.9683 46.7062 53.7152 49.8469C51.462 52.9877 48.1989 55.2598 44.4715 56.2832C40.744 57.3066 36.7782 57.0193 33.2372 55.4694C29.6961 53.9195 26.7945 51.2009 25.0175 47.7682C23.2405 44.3354 22.6959 40.3967 23.4746 36.6106C24.2534 32.8245 26.3083 29.4205 29.2959 26.9677C32.2834 24.515 36.0224 23.1623 39.8877 23.1358C43.753 23.1093 47.5103 24.4105 50.5312 26.822L58.5125 18.8376C53.2685 14.265 46.5145 11.8006 39.5579 11.9217C32.6014 12.0428 25.9372 14.7406 20.8555 19.4929C15.7738 24.2453 12.6361 30.714 12.0498 37.6469C11.4636 44.5798 13.4705 51.4836 17.6821 57.0217C21.8936 62.5599 28.0102 66.3385 34.8476 67.626C41.685 68.9134 48.757 67.6182 54.6943 63.9911C60.6317 60.3639 65.0121 54.6628 66.9874 47.9915C68.9628 41.3203 68.3927 34.1533 65.3875 27.8782C65.2806 27.6562 65.2184 27.4153 65.2046 27.1693C65.1908 26.9233 65.2256 26.6769 65.307 26.4443C65.3884 26.2118 65.5148 25.9975 65.679 25.8138C65.8432 25.63 66.042 25.4804 66.264 25.3735C66.4861 25.2666 66.727 25.2045 66.973 25.1907C67.219 25.1769 67.4653 25.2117 67.6979 25.2931C67.9305 25.3745 68.1448 25.5009 68.3285 25.6651C68.5122 25.8293 68.6618 26.0281 68.7687 26.2501Z" fill="#46A26F"/>
</svg>
