<svg width="92" height="92" viewBox="0 0 92 92" fill="none" xmlns="http://www.w3.org/2000/svg">
<path d="M81.3049 60.912C78.8662 66.6791 75.0519 71.7611 70.1954 75.7136C65.339 79.6661 59.5882 82.3688 53.4459 83.5853C47.3036 84.8018 40.9569 84.4952 34.9605 82.6922C28.9641 80.8892 23.5006 77.6447 19.0478 73.2425C14.595 68.8402 11.2884 63.4142 9.41702 57.4388C7.54567 51.4634 7.16657 45.1205 8.31288 38.9647C9.45918 32.809 12.096 27.0277 15.9928 22.1264C19.8895 17.2251 24.9276 13.353 30.6666 10.8486" stroke="#46A26F" stroke-width="3" stroke-linecap="round" stroke-linejoin="round"/>
<path d="M84.3333 46.0003C84.3333 40.9663 83.3418 35.9816 81.4154 31.3308C79.489 26.68 76.6653 22.4541 73.1058 18.8946C69.5462 15.335 65.3203 12.5114 60.6695 10.5849C56.0187 8.65851 51.034 7.66699 46 7.66699V46.0003H84.3333Z" stroke="#46A26F" stroke-width="3" stroke-linecap="round" stroke-linejoin="round"/>
</svg>
