<svg width="50" height="35" viewBox="0 0 50 35" fill="none" xmlns="http://www.w3.org/2000/svg">
<path d="M1 17.5L16 17.5C16.7957 17.5 17.5587 17.8161 18.1213 18.3787C18.6839 18.9413 19 19.7044 19 20.5V31C19 31.7956 18.6839 32.5587 18.1213 33.1213C17.5587 33.6839 16.7957 34 16 34H4C3.20435 34 2.44129 33.6839 1.87868 33.1213C1.31607 32.5587 1 31.7956 1 31V17.5Z" fill="#064EA2" fill-opacity="0.2"/>
<path d="M31 17.5L46 17.5C46.7956 17.5 47.5587 17.8161 48.1213 18.3787C48.6839 18.9413 49 19.7044 49 20.5V31C49 31.7956 48.6839 32.5587 48.1213 33.1213C47.5587 33.6839 46.7956 34 46 34H34C33.2044 34 32.4413 33.6839 31.8787 33.1213C31.3161 32.5587 31 31.7956 31 31L31 17.5Z" fill="#064EA2" fill-opacity="0.2"/>
<path d="M31 17.5L46 17.5C46.7956 17.5 47.5587 17.8161 48.1213 18.3787C48.6839 18.9413 49 19.7044 49 20.5V31C49 31.7956 48.6839 32.5587 48.1213 33.1213C47.5587 33.6839 46.7956 34 46 34H34C33.2044 34 32.4413 33.6839 31.8787 33.1213C31.3161 32.5587 31 31.7956 31 31L31 17.5ZM31 17.5C31 10 34 5.5 43 1M1 17.5L16 17.5C16.7956 17.5 17.5587 17.8161 18.1213 18.3787C18.6839 18.9413 19 19.7044 19 20.5V31C19 31.7956 18.6839 32.5587 18.1213 33.1213C17.5587 33.6839 16.7956 34 16 34H4C3.20435 34 2.44129 33.6839 1.87868 33.1213C1.31607 32.5587 1 31.7956 1 31V17.5ZM1 17.5C1 10 4 5.5 13 1" stroke="#064EA2" stroke-width="2" stroke-linecap="round"/>
</svg>
