<svg width="79" height="80" viewBox="0 0 79 80" fill="none" xmlns="http://www.w3.org/2000/svg">
<path d="M11.5208 16.6666C11.5208 14.4564 12.3878 12.3368 13.9311 10.774C15.4744 9.21123 17.5675 8.33325 19.75 8.33325H52.6667C54.8492 8.33325 56.9423 9.21123 58.4856 10.774C60.0288 12.3368 60.8958 14.4564 60.8958 16.6666V34.9999C60.8958 35.4419 60.7224 35.8659 60.4138 36.1784C60.1051 36.491 59.6865 36.6666 59.25 36.6666C58.8135 36.6666 58.3949 36.491 58.0862 36.1784C57.7776 35.8659 57.6042 35.4419 57.6042 34.9999V16.6666C57.6042 15.3405 57.084 14.0687 56.158 13.1311C55.232 12.1934 53.9762 11.6666 52.6667 11.6666H19.75C18.4405 11.6666 17.1846 12.1934 16.2587 13.1311C15.3327 14.0687 14.8125 15.3405 14.8125 16.6666V63.3333C14.8125 64.6593 15.3327 65.9311 16.2587 66.8688C17.1846 67.8065 18.4405 68.3333 19.75 68.3333H42.7917C43.2282 68.3333 43.6468 68.5088 43.9554 68.8214C44.2641 69.134 44.4375 69.5579 44.4375 69.9999C44.4375 70.4419 44.2641 70.8659 43.9554 71.1784C43.6468 71.491 43.2282 71.6666 42.7917 71.6666H19.75C17.5675 71.6666 15.4744 70.7886 13.9311 69.2258C12.3878 67.663 11.5208 65.5434 11.5208 63.3333V16.6666Z" fill="#8087FF"/>
<path d="M59.25 45.0001C59.6865 45.0001 60.1051 45.1757 60.4138 45.4882C60.7224 45.8008 60.8958 46.2247 60.8958 46.6667V48.8901H61.4521C64.5792 48.8901 67.4792 51.1701 67.4792 54.4434C67.4792 54.8854 67.3058 55.3094 66.9971 55.6219C66.6885 55.9345 66.2698 56.1101 65.8333 56.1101C65.3968 56.1101 64.9782 55.9345 64.6695 55.6219C64.3609 55.3094 64.1875 54.8854 64.1875 54.4434C64.1875 53.4101 63.1803 52.2234 61.4521 52.2234H56.4949C55.0795 52.2234 54.3125 53.2001 54.3125 53.9434C54.3125 54.6534 54.4837 54.8934 54.5857 55.0034C54.7371 55.1667 55.0432 55.3567 55.7378 55.5667L63.6938 57.9034C64.5595 58.1634 65.5535 58.5634 66.3139 59.3834C67.127 60.2601 67.4792 61.3967 67.4792 62.7234C67.4792 65.7167 64.8096 67.7767 62.0051 67.7767H60.8958V70.0001C60.8958 70.4421 60.7224 70.866 60.4138 71.1786C60.1051 71.4911 59.6865 71.6667 59.25 71.6667C58.8135 71.6667 58.3949 71.4911 58.0862 71.1786C57.7776 70.866 57.6042 70.4421 57.6042 70.0001V67.7767H57.0479C53.9208 67.7767 51.0208 65.4967 51.0208 62.2234C51.0208 61.7814 51.1942 61.3575 51.5029 61.0449C51.8115 60.7323 52.2302 60.5567 52.6667 60.5567C53.1032 60.5567 53.5218 60.7323 53.8304 61.0449C54.1391 61.3575 54.3125 61.7814 54.3125 62.2234C54.3125 63.2567 55.3197 64.4434 57.0479 64.4434H62.0051C63.4205 64.4434 64.1875 63.4667 64.1875 62.7234C64.1875 62.0134 64.0163 61.7734 63.9143 61.6634C63.7629 61.5001 63.4567 61.3101 62.7622 61.1001L54.8062 58.7634C53.9405 58.5034 52.9465 58.1034 52.1861 57.2834C51.373 56.4067 51.0208 55.2701 51.0208 53.9434C51.0208 50.9501 53.6904 48.8901 56.4949 48.8901H57.6042V46.6667C57.6042 46.2247 57.7776 45.8008 58.0862 45.4882C58.3949 45.1757 58.8135 45.0001 59.25 45.0001ZM21.3958 36.6667C21.3958 36.2247 21.5692 35.8008 21.8779 35.4882C22.1865 35.1757 22.6052 35.0001 23.0417 35.0001H24.6875C25.124 35.0001 25.5426 35.1757 25.8513 35.4882C26.1599 35.8008 26.3333 36.2247 26.3333 36.6667C26.3333 37.1088 26.1599 37.5327 25.8513 37.8453C25.5426 38.1578 25.124 38.3334 24.6875 38.3334H23.0417C22.6052 38.3334 22.1865 38.1578 21.8779 37.8453C21.5692 37.5327 21.3958 37.1088 21.3958 36.6667ZM31.2708 36.6667C31.2708 36.2247 31.4442 35.8008 31.7529 35.4882C32.0615 35.1757 32.4802 35.0001 32.9167 35.0001H49.375C49.8115 35.0001 50.2301 35.1757 50.5388 35.4882C50.8474 35.8008 51.0208 36.2247 51.0208 36.6667C51.0208 37.1088 50.8474 37.5327 50.5388 37.8453C50.2301 38.1578 49.8115 38.3334 49.375 38.3334H32.9167C32.4802 38.3334 32.0615 38.1578 31.7529 37.8453C31.4442 37.5327 31.2708 37.1088 31.2708 36.6667ZM21.3958 46.6667C21.3958 46.2247 21.5692 45.8008 21.8779 45.4882C22.1865 45.1757 22.6052 45.0001 23.0417 45.0001H24.6875C25.124 45.0001 25.5426 45.1757 25.8513 45.4882C26.1599 45.8008 26.3333 46.2247 26.3333 46.6667C26.3333 47.1088 26.1599 47.5327 25.8513 47.8452C25.5426 48.1578 25.124 48.3334 24.6875 48.3334H23.0417C22.6052 48.3334 22.1865 48.1578 21.8779 47.8452C21.5692 47.5327 21.3958 47.1088 21.3958 46.6667ZM31.2708 46.6667C31.2708 46.2247 31.4442 45.8008 31.7529 45.4882C32.0615 45.1757 32.4802 45.0001 32.9167 45.0001H44.4375C44.874 45.0001 45.2926 45.1757 45.6013 45.4882C45.9099 45.8008 46.0833 46.2247 46.0833 46.6667C46.0833 47.1088 45.9099 47.5327 45.6013 47.8452C45.2926 48.1578 44.874 48.3334 44.4375 48.3334H32.9167C32.4802 48.3334 32.0615 48.1578 31.7529 47.8452C31.4442 47.5327 31.2708 47.1088 31.2708 46.6667ZM21.3958 56.6667C21.3958 56.2247 21.5692 55.8008 21.8779 55.4882C22.1865 55.1757 22.6052 55.0001 23.0417 55.0001H24.6875C25.124 55.0001 25.5426 55.1757 25.8513 55.4882C26.1599 55.8008 26.3333 56.2247 26.3333 56.6667C26.3333 57.1088 26.1599 57.5327 25.8513 57.8452C25.5426 58.1578 25.124 58.3334 24.6875 58.3334H23.0417C22.6052 58.3334 22.1865 58.1578 21.8779 57.8452C21.5692 57.5327 21.3958 57.1088 21.3958 56.6667ZM31.2708 56.6667C31.2708 56.2247 31.4442 55.8008 31.7529 55.4882C32.0615 55.1757 32.4802 55.0001 32.9167 55.0001H39.5C39.9365 55.0001 40.3551 55.1757 40.6638 55.4882C40.9724 55.8008 41.1458 56.2247 41.1458 56.6667C41.1458 57.1088 40.9724 57.5327 40.6638 57.8452C40.3551 58.1578 39.9365 58.3334 39.5 58.3334H32.9167C32.4802 58.3334 32.0615 58.1578 31.7529 57.8452C31.4442 57.5327 31.2708 57.1088 31.2708 56.6667ZM22.3307 15.0001H50.086C50.5007 15.0001 50.9056 15.0001 51.248 15.0267C51.6232 15.0601 52.0709 15.1334 52.5152 15.3634C53.1346 15.683 53.6381 16.1929 53.9537 16.8201C54.1841 17.2734 54.2532 17.7201 54.2829 18.1034C54.3125 18.4501 54.3125 18.8601 54.3125 19.2801V24.0534C54.3125 24.4734 54.3125 24.8834 54.2829 25.2301C54.2591 25.6759 54.1472 26.1123 53.9537 26.5134C53.6381 27.1406 53.1346 27.6505 52.5152 27.9701C52.1191 28.166 51.6882 28.2794 51.248 28.3034C50.8611 28.3273 50.4735 28.3373 50.086 28.3334H22.3307C21.9159 28.3334 21.511 28.3334 21.1687 28.3067C20.7283 28.2816 20.2973 28.1672 19.9014 27.9701C19.2821 27.6505 18.7785 27.1406 18.463 26.5134C18.2695 26.1123 18.1575 25.6759 18.1338 25.2301C18.1102 24.8383 18.1004 24.4459 18.1042 24.0534V19.2801C18.1042 18.8601 18.1042 18.4501 18.1305 18.1034C18.1634 17.7234 18.2358 17.2701 18.463 16.8201C18.7785 16.1929 19.2821 15.683 19.9014 15.3634C20.2975 15.1675 20.7285 15.0541 21.1687 15.0301C21.5556 15.0062 21.9431 14.9962 22.3307 15.0001ZM21.4156 18.3534V18.3734C21.3958 18.5701 21.3958 18.8401 21.3958 19.3334V24.0001C21.3906 24.3269 21.3971 24.6538 21.4156 24.9801H21.4353C21.6295 25.0001 21.8962 25.0001 22.3833 25.0001H50.0333C50.5205 25.0001 50.7904 25.0001 50.9813 24.9834H51.0011V24.9601C51.019 24.6404 51.0256 24.3202 51.0208 24.0001V19.3334C51.0261 19.0066 51.0195 18.6797 51.0011 18.3534H50.9813C50.6657 18.3352 50.3495 18.3285 50.0333 18.3334H22.3833C22.0606 18.3281 21.7378 18.3347 21.4156 18.3534Z" fill="#8087FF"/>
</svg>
