<svg width="96" height="96" viewBox="0 0 96 96" fill="none" xmlns="http://www.w3.org/2000/svg">
<path d="M68 84V76C68 71.7565 66.3143 67.6869 63.3137 64.6863C60.3131 61.6857 56.2435 60 52 60H20C15.7565 60 11.6869 61.6857 8.68629 64.6863C5.68571 67.6869 4 71.7565 4 76V84" stroke="#FFA10D" stroke-width="3" stroke-linecap="round" stroke-linejoin="round"/>
<path d="M36 44C44.8366 44 52 36.8366 52 28C52 19.1634 44.8366 12 36 12C27.1634 12 20 19.1634 20 28C20 36.8366 27.1634 44 36 44Z" stroke="#FFA10D" stroke-width="3" stroke-linecap="round" stroke-linejoin="round"/>
<path d="M92 83.9995V75.9995C91.9974 72.4544 90.8174 69.0106 88.6455 66.2088C86.4735 63.407 83.4325 61.4058 80 60.5195" stroke="#FFA10D" stroke-width="3" stroke-linecap="round" stroke-linejoin="round"/>
<path d="M64 12.5195C67.4417 13.4007 70.4921 15.4023 72.6706 18.2088C74.849 21.0152 76.0314 24.4668 76.0314 28.0195C76.0314 31.5722 74.849 35.0238 72.6706 37.8303C70.4921 40.6367 67.4417 42.6383 64 43.5195" stroke="#FFA10D" stroke-width="3" stroke-linecap="round" stroke-linejoin="round"/>
</svg>
