<svg width="40" height="8" viewBox="0 0 40 8" fill="none" xmlns="http://www.w3.org/2000/svg">
<path d="M8.39623 7.88005H1.27715C0.810904 7.88005 0.355982 7.66001 0.139888 7.29001C-0.110191 6.86003 -0.0193314 6.35002 0.36731 6.01999L5.32575 1.66001H1.76614C0.788092 1.66001 0.00340301 0.959983 0.00340301 0.109917H6.56529C7.03154 0.109917 7.48638 0.329956 7.70248 0.699962C7.95271 1.12994 7.86169 1.63995 7.47505 1.96991L2.51669 6.33002H6.62216C7.60013 6.33002 8.39623 7.03006 8.39623 7.88005ZM36.5768 0C35.5534 0 34.6435 0.389998 34.0067 1.01C33.3699 0.389998 32.46 0 31.4366 0C29.5488 0 28.0021 1.41998 28.0021 3.08V7.88005C28.9801 7.88005 29.7648 7.18002 29.7648 6.33002V3.07004C29.7648 2.26998 30.4699 1.59001 31.3796 1.56006C32.3349 1.53004 33.1196 2.19998 33.1196 3.02999V6.33002C33.1196 7.19005 33.9157 7.88005 34.8824 7.88005V3.06001C34.8824 2.26002 35.5874 1.57998 36.4972 1.55003C37.4525 1.52001 38.2372 2.19002 38.2372 3.02003V6.31999C38.2372 7.18009 39.0333 7.87002 39.9999 7.87002V3.07011C40.0113 1.41998 38.4646 0 36.5768 0ZM17.3121 4C17.3121 6.21001 15.2765 8 12.7632 8C10.2499 8 8.21427 6.21001 8.21427 4C8.21427 1.78999 10.2499 0 12.7632 0C15.2765 0 17.3121 1.78999 17.3121 4ZM15.5494 4C15.5494 2.65002 14.2984 1.55003 12.7632 1.55003C11.2279 1.55003 9.97693 2.65002 9.97693 4C9.97693 5.35005 11.2279 6.45004 12.7632 6.45004C14.2984 6.45004 15.5494 5.35005 15.5494 4ZM27.115 4C27.115 6.21001 25.0794 8 22.5661 8C20.0528 8 18.0172 6.21001 18.0172 4C18.0172 1.78999 20.0528 0 22.5661 0C25.0794 0 27.1151 1.78999 27.1151 4M25.3524 4C25.3524 2.65002 24.1015 1.55003 22.5662 1.55003C21.031 1.55003 19.78 2.65002 19.78 4C19.78 5.35005 21.0309 6.45004 22.5662 6.45004C24.1015 6.45004 25.3524 5.35005 25.3524 4Z" fill="#064EA2"/>
</svg>
